<svg id="Calque_1" data-name="Calque 1" xmlns="http://www.w3.org/2000/svg" viewBox="0 0 288.39 162.26"><defs><style>.cls-1{fill:#fff;}.cls-2{fill:none;stroke-linecap:round;stroke-linejoin:round;}.cls-2,.cls-3,.cls-5,.cls-6,.cls-7,.cls-8,.cls-9{stroke:#1d1d1b;}.cls-3{fill:#ffeed9;}.cls-3,.cls-5,.cls-6,.cls-7,.cls-8,.cls-9{stroke-miterlimit:10;}.cls-4{fill:#1d1d1b;}.cls-5{fill:#fff9c5;}.cls-6{fill:#f4f8ef;stroke-dasharray:2 2;}.cls-7{fill:#e8f5fb;}.cls-8{fill:#f2e7f3;}.cls-9{fill:#fce9f3;}</style></defs><path class="cls-1" d="M69.36,85c41.39,18.35,100.76,26.13,141.12,1C184,43.17,95.85,52.42,69.36,85ZM144.19.5c79.36,0,143.7,36.1,143.7,80.63s-64.34,80.63-143.7,80.63S.5,125.66.5,81.13,64.83.5,144.19.5Z"/><path class="cls-2" d="M287.89,81.13c0,44.53-64.34,80.63-143.7,80.63S.5,125.66.5,81.13,64.83.5,144.19.5,287.89,36.6,287.89,81.13Z"/><path class="cls-2" d="M47.79,73.47A153.93,153.93,0,0,0,69.36,85c41.39,18.35,100.76,26.13,141.12,1a84.8,84.8,0,0,0,20.65-18"/><path class="cls-2" d="M69.36,85C95.85,52.42,184,43.17,210.48,86"/><path class="cls-3" d="M51.86,108c-8.8,2.49-16,3.46-18.81,13.21C30,131.85,16.24,95.41,19.45,86.84c7.64-20.37,21,4,33,2.46C66.16,87.53,65.13,104.19,51.86,108Z"/><circle class="cls-4" cx="34.84" cy="98.63" r="2.83"/><path class="cls-4" d="M36.12,85.92l.13.1c-.06,1.15-.09,2.27-.09,3.37,0,.26,0,.65,0,1.17l1,0,.05.11a6,6,0,0,0-.27.63c-.24,0-.5,0-.76,0,0,.12,0,.22,0,.29a2,2,0,0,0,.1.87,2,2,0,0,0,.82.31V93c-.5,0-.93,0-1.29,0s-.83,0-1.36,0V92.7a3.86,3.86,0,0,0,.8-.2.25.25,0,0,0,.12-.16,3.14,3.14,0,0,0,0-.7v-.41H33.64l-1.18,0c0-.2,0-.42,0-.67.18-.24.35-.46.49-.67l1.62-2.26.92-1.35A4.8,4.8,0,0,0,36.12,85.92Zm-.73,4.64V87.18l-2.34,3.38Z"/><path class="cls-5" d="M155.54,40.35c-8.8,2.5-24,2.38-25.58-3.46-3.7-13.47-25-17.73-1.6-23.74,26.2-6.73,15.77,10.09,27.77,8.54C169.84,19.92,168.81,36.59,155.54,40.35Z"/><circle class="cls-4" cx="142.39" cy="27.79" r="2.83"/><path class="cls-4" d="M144.08,16l.06.08c-.14.25-.28.51-.4.77-.64,0-1.21,0-1.73,0h-.55c-.1.39-.21.79-.32,1.19a3.3,3.3,0,0,1,1.8.46,2.13,2.13,0,0,1,1,1.93,2.73,2.73,0,0,1-.35,1.36,2.64,2.64,0,0,1-1,1,2.79,2.79,0,0,1-1.31.36,3.14,3.14,0,0,1-1.15-.28,9.37,9.37,0,0,0,.16-1.2h.29a1.49,1.49,0,0,0,.48.7,1.13,1.13,0,0,0,.69.21,1.3,1.3,0,0,0,1.13-.53,2,2,0,0,0,.38-1.19,1.84,1.84,0,0,0-.27-1,1.7,1.7,0,0,0-.8-.66,2.89,2.89,0,0,0-1.13-.23,4.26,4.26,0,0,0-.54,0l-.12-.14a15.65,15.65,0,0,0,.76-2.81c.57,0,1.12.05,1.63.05S143.65,16,144.08,16Z"/><path class="cls-6" d="M88,131.88c-1.62-7.9,10.62-18,21-22.44,18.16-7.81,38.32-1.78,52.83,2.56,15.68,4.68,19.69,9,31.81,8.52,12.58-.56,19.23-5.75,23-2.28,4.61,4.24,2.24,18.88-6,27.55-12,12.66-35.21,8.9-81.23.86C93.34,140.33,88.85,135.82,88,131.88Z"/><path class="cls-7" d="M106.5,126.77c-.59-3.7,5.85-8.33,11.65-9.66,7.28-1.68,16.38,1.2,17,5.39.55,3.53-4.94,7.55-9.37,9.09C117.73,134.42,107.2,131.12,106.5,126.77Z"/><circle class="cls-4" cx="120.85" cy="126.07" r="2.13"/><path class="cls-4" d="M125.38,118.76v-.27c.64-.26,1.1-.46,1.37-.58a4.37,4.37,0,0,0,.48-.27l.15.11c-.08,1-.12,2.17-.12,3.61,0,1.25,0,2,0,2.12a2.08,2.08,0,0,0,.08.63.24.24,0,0,0,.1.1l.76.2v.28q-1-.06-1.47-.06c-.36,0-.78,0-1.25.06v-.28a5.53,5.53,0,0,0,.78-.22.36.36,0,0,0,.11-.1,3.05,3.05,0,0,0,.06-.63v-4.37a.67.67,0,0,0-.07-.36.27.27,0,0,0-.22-.09A5,5,0,0,0,125.38,118.76Z"/><path class="cls-8" d="M154.5,135.57c-1.29-4.95,2.59-11.82,6.82-12.5,4.47-.71,6.37,6,13.92,7.1,5.67.85,8.86-2.3,10.51-.56,2,2.08-.25,9.09-4.83,12.49C172.87,148.08,156.61,143.63,154.5,135.57Z"/><circle class="cls-4" cx="165.49" cy="136.77" r="2.13"/><path class="cls-4" d="M170.63,133.21h-.35a11.26,11.26,0,0,0,.24-1.21,3.46,3.46,0,0,1,.82-.51,2.19,2.19,0,0,1,.83-.16,1.92,1.92,0,0,1,.94.23,1.58,1.58,0,0,1,.66.67,2,2,0,0,1,.23,1,2.38,2.38,0,0,1-.17.88,4.4,4.4,0,0,1-.72,1.18c-.34.41-1,1.2-2.11,2.36h2.05a1.3,1.3,0,0,0,.59-.09A1.31,1.31,0,0,0,174,137a.36.36,0,0,0,.06-.11h.37c-.26.64-.46,1.12-.59,1.46-.65,0-1.24-.05-1.76-.05s-1.19,0-2.16.05v-.29c1-1,1.7-1.8,2.12-2.31a6,6,0,0,0,.9-1.4,2.36,2.36,0,0,0,.18-.92,1.37,1.37,0,0,0-.31-1,1,1,0,0,0-.81-.34,1.23,1.23,0,0,0-.8.29A2.23,2.23,0,0,0,170.63,133.21Z"/><path class="cls-9" d="M202.22,126.48c-2.79,1.33-5.95,4.53-5.4,7.67.71,4,7.36,6.87,12.22,4.83,3.89-1.64,6.84-6.5,5.39-9.94C212.83,125.22,206.4,124.49,202.22,126.48Z"/><circle class="cls-4" cx="203.57" cy="132.64" r="2.13"/><path class="cls-4" d="M209,128.77h-.32a10.52,10.52,0,0,0,.25-1.08,2.74,2.74,0,0,1,.72-.37,2.28,2.28,0,0,1,.73-.12,1.8,1.8,0,0,1,.82.18,1.26,1.26,0,0,1,.55.52,1.42,1.42,0,0,1,.18.69,1.91,1.91,0,0,1-.95,1.54,1.79,1.79,0,0,1,.82.45,1.81,1.81,0,0,1,.47,1.29,2.37,2.37,0,0,1-.77,1.77,2.68,2.68,0,0,1-1.94.75,3.54,3.54,0,0,1-1.27-.25,9.09,9.09,0,0,0,.21-1.27h.29a1.52,1.52,0,0,0,.47.79,1.07,1.07,0,0,0,.72.23,1.37,1.37,0,0,0,1-.43,1.56,1.56,0,0,0,.41-1.15,1.51,1.51,0,0,0-.43-1.14,1.71,1.71,0,0,0-1.25-.43h-.17v-.34a2.57,2.57,0,0,0,1.2-.63,1.31,1.31,0,0,0,.34-.85.94.94,0,0,0-.27-.7,1,1,0,0,0-.73-.26,1.12,1.12,0,0,0-.7.22A1.87,1.87,0,0,0,209,128.77Z"/></svg>