<svg id="Calque_1" data-name="Calque 1" xmlns="http://www.w3.org/2000/svg" viewBox="0 0 175.63 67.05"><defs><style>.cls-1{fill:#477ec0;}.cls-2{fill:#094798;}.cls-3{fill:#e94732;}</style></defs><path class="cls-1" d="M163.5,23a10.27,10.27,0,0,1-3.4-.59A10.11,10.11,0,1,1,172.62,8.57h0A10.11,10.11,0,0,1,163.5,23Zm0-18.22a8.09,8.09,0,0,0-7.63,5.39,8.11,8.11,0,1,0,15-.76h0a8.1,8.1,0,0,0-7.33-4.63Z"/><path class="cls-2" d="M163.5,18.6a5.69,5.69,0,1,1,1.9-11,5.63,5.63,0,0,1,3.22,2.91h0a5.68,5.68,0,0,1-5.12,8.13Zm0-9.37a3.65,3.65,0,0,0-1.58.36A3.68,3.68,0,1,0,167,14.15a3.61,3.61,0,0,0-.15-2.81h0a3.65,3.65,0,0,0-2.09-1.88A3.51,3.51,0,0,0,163.49,9.23Z"/><path class="cls-1" d="M52.25,53.87q-3.24,1.53-4.46,0T46.57,48V31q0-7.11-4.24-11.31T29.08,15.46a67.12,67.12,0,0,0-9.69.85q-5.73.87-11.86,2.3V32H8a127.62,127.62,0,0,1,11.9-8.7c3.73-2.38,6.5-3.56,8.3-3.56,1.2,0,2,.76,2.52,2.29a29.83,29.83,0,0,1,.72,7.89V35l-.67-.25a28.31,28.31,0,0,0-4.15-1,24,24,0,0,0-4-.36A21.2,21.2,0,0,0,13.3,34.8,15.75,15.75,0,0,0,6.4,40a13,13,0,0,0-2.56,8A15.57,15.57,0,0,0,5.5,55a13.34,13.34,0,0,0,5,5.41,14.73,14.73,0,0,0,7.93,2.07A15.67,15.67,0,0,0,26,60.76a15.34,15.34,0,0,0,5.1-4.23c.36-.49.67-1,1-1.44a10.79,10.79,0,0,0,2.25,4.19,10.18,10.18,0,0,0,8,3.24,10.32,10.32,0,0,0,7.08-2.34,8.93,8.93,0,0,0,3-6Zm-21.82-.46a6.53,6.53,0,0,1-3.51,1A6.58,6.58,0,0,1,21.51,52a9.47,9.47,0,0,1-2-6.22,9.32,9.32,0,0,1,1-4.46,6.43,6.43,0,0,1,3.2-2.89,11.88,11.88,0,0,1,5.41-.76c.6.06,1.2.1,1.8.13.17,0,.3,0,.45.06V50.26a20.86,20.86,0,0,0,.14,2.29A7.34,7.34,0,0,1,30.43,53.41Z"/><path class="cls-1" d="M104.72,60.36c-.72-2.71-1.29-5-1.71-7a30.8,30.8,0,0,1-.63-6.4V30.51q0-7.11-4.24-11.09a15,15,0,0,0-10.64-4,15.64,15.64,0,0,0-10,3.2A18.5,18.5,0,0,0,73,23.72V16H55.41v.36l.27,1q1.08,4.06,1.66,7a32.46,32.46,0,0,1,.59,6.4V46.92a32.31,32.31,0,0,1-.59,6.4c-.39,2-.94,4.33-1.66,7l-.27,1v.36H75.6v-.36l-.27-1c-.72-2.71-1.29-5-1.71-7a30.8,30.8,0,0,1-.63-6.4V26.85a14.17,14.17,0,0,1,7.12-2.2,7.64,7.64,0,0,1,5.18,2c1.36,1.26,2,3.24,2,6V46.92a33.1,33.1,0,0,1-.58,6.4c-.39,2-.95,4.33-1.67,7l-.27,1v.36H105v-.36Z"/><path class="cls-3" d="M137.22,15.32a13.72,13.72,0,0,0-6.53,4.29,24.91,24.91,0,0,0-3.61,5.74V16H109.5v.36l.27,1q1.08,4.06,1.67,7a33.23,33.23,0,0,1,.59,6.4V46.92a33.08,33.08,0,0,1-.59,6.4c-.39,2-1,4.33-1.67,7l-.27,1v.36h20.2v-.36l-.27-1c-.73-2.71-1.3-5-1.72-7a30.8,30.8,0,0,1-.63-6.4V27.62a10.1,10.1,0,0,1,5.37-1.57,12.09,12.09,0,0,1,6,1.67,20.7,20.7,0,0,1,5.05,4.15h.45l2.35-16A14.74,14.74,0,0,0,137.22,15.32Z"/></svg>