<svg xmlns="http://www.w3.org/2000/svg" xmlns:xlink="http://www.w3.org/1999/xlink" viewBox="0 0 202.28 202.29"><defs><style>.a{fill:url(#a);}.b{fill:#fff;}.c{fill:#62c4dd;}</style><radialGradient id="a" cx="495.88" cy="77.82" r="212.81" gradientTransform="translate(-173.38 30.84) scale(0.6)" gradientUnits="userSpaceOnUse"><stop offset="0" stop-color="#456587"/><stop offset="0.35" stop-color="#284c6e"/><stop offset="0.76" stop-color="#0b3254"/><stop offset="1" stop-color="#00294b"/></radialGradient></defs><path class="a" d="M96.85.17C95,.06,93.23,0,91.43,0,66.39,0,43.71,10.63,24,31.76,6,51,0,66.41,0,85.08c0,10,1.8,20.88,4.42,33.76C9.35,143.07,23.74,166.46,43.88,183c15.42,12.68,32.62,19.15,50.75,19.27a86.26,86.26,0,0,0,28.81-4.95c31.55-10.89,61.73-42.07,73.4-75.83a93.69,93.69,0,0,0,5.44-31C202.19,66.36,191.14,45.16,170,30,144.44,11.63,119.82,1.59,96.85.17Z"/><path class="b" d="M60.83,101.47H53.89v.19c-.06,1.35-.86,13.15-11.42,13.15-9.44,0-14.23-8.45-14.23-25.14S33,64.53,42.46,64.53c10.75,0,11.4,12.61,11.42,13.15v.19h6.94a2.4,2.4,0,0,0,1.71-.72,2.14,2.14,0,0,0,.61-1.6C63,72.28,61.33,56,42.37,56,27,56,18.94,67.6,18.94,89.64s8.1,33.75,23.43,33.75c18.25,0,20.52-14.91,20.78-19.48a2.19,2.19,0,0,0-.61-1.7A2.38,2.38,0,0,0,60.83,101.47Z"/><path class="c" d="M168.63,85.66h0l-6-2.6c-5.75-2.53-7.78-5-7.78-9.39,0-5.75,4.2-9.61,10.46-9.61,3.7,0,6.73.76,10.44,4.53l.2.21,3.19-2.92c1.85-1.71,1.31-3.26.54-4.25-3.11-3.67-8.1-5.69-14.07-5.69-11.5,0-19.84,7.51-19.84,17.84,0,10.17,6.4,14.42,13.32,17.49l6.1,2.73c6.13,2.74,9,5.09,9,11,0,8-7.26,10.19-11.56,10.19-3.69,0-7.8-.79-12.85-6.52l-.2-.22-3.32,2.92c-1.71,1.5-1.73,2.79-.06,4.93,4.57,5.88,11.28,7.11,16.1,7.11,10.42,0,21-6.4,21-18.63C183.34,94.16,177.46,89.46,168.63,85.66Z"/><path class="c" d="M109.71,75.25c0-10.41-8.43-19.24-18.85-19.24A18.74,18.74,0,0,0,78.15,61V57.37H71.88A2.4,2.4,0,0,0,69.27,60v60.75a2.39,2.39,0,0,0,2.58,2.62h6.27V75.62a11.37,11.37,0,1,1,22.73,0V123.4h6.24a2.36,2.36,0,0,0,2.62-2.61Z"/><path class="b" d="M145.68,60.56a2.35,2.35,0,0,0-1.09-3.72,18,18,0,0,0-5.76-.94,18.74,18.74,0,0,0-12.71,4.93V57.25h-6.27a2.4,2.4,0,0,0-2.61,2.65v60.75a2.4,2.4,0,0,0,2.58,2.63h6.27V75.5a11.35,11.35,0,0,1,16-10.38l3.62-4.55Z"/></svg>