<svg xmlns="http://www.w3.org/2000/svg" viewBox="0 0 383.66 111.61"><defs><style>.a{fill:#8a1739;}</style></defs><path class="a" d="M92.49,23.64h18v1.63h-5.58V58.66c0,9.61-1.69,19.83-5.79,26.47L95.7,80.49c3.37-7.77,2.39-17.53,2.46-21.83V25.27H92.49Z"/><path class="a" d="M64,27.94h.7c1.87,18.69,5.73,34.78,18.89,53.19,8.19,11.45,19.2,27.75,19.2,27.75h11.43S97.7,88,91.36,78.49c-15-22.37-20.11-40.44-21-77.25V0H60.79V1.24C61.09,31.72,57.63,45,53,56.37A84.39,84.39,0,0,1,35.81,82a31.22,31.22,0,0,0,1.27,6.43A28.56,28.56,0,0,1,59,77.64a21.79,21.79,0,0,1,15.48,5.69c1.85,1.67,5,5.46,10.34,14.23a31.45,31.45,0,0,1-23.09,10c-13.25,0-19.29-4.92-23.79-11.33-4.12-5.85-6.24-14.56-6.24-28.06V25.27h5.1V23.64H0v1.63H5.27V56.64C5.27,74.46,9.13,84.38,15.38,93c6.37,8.79,19.66,18.62,44.4,18.62,13.07,0,22.06-5.71,27-10.74,1.33,2.28,3,5.16,4.55,8H100s-5.75-8.68-14.33-21C76.51,74.67,67.72,73,59,73a25.4,25.4,0,0,0-13.19,4.37l-.26-.26C51.29,70.52,55,62.72,57.25,56.89,59.66,50.73,63.56,37.79,64,27.94Z"/><path d="M166.86,62.28c10.17,0,15.77-4.81,15.77-13.53V23.57h-5.69V48.64c0,6-3.45,9.1-10,9.1s-10-3.15-10-9.1V23.57h-6.12V48.75C150.87,57.47,156.55,62.28,166.86,62.28Z"/><path d="M213.8,61.75V40.56c0-4-3-6.28-8.15-6.28-4.94,0-9,1.89-10.88,3.73V34.63l-5.37.24V61.75H195V41.64c1.7-2.3,5.42-3.5,8.23-3.5,3.29,0,4.89,1.15,4.89,3.53V61.75Z"/><rect x="220.14" y="25.52" width="5.59" height="5.17"/><polygon points="220.14 61.75 225.73 61.75 225.73 34.69 220.14 34.81 220.14 61.75"/><polygon points="245.2 61.75 255.6 35.15 255.73 34.8 250.85 34.8 242.83 56.31 235.04 34.97 234.98 34.8 229.04 34.8 239.35 61.75 245.2 61.75"/><path d="M281,59.21V55l-.42.43c-1.55,1.52-5.08,3.07-8.84,3.07-6.41,0-9.66-3.41-9.66-10.14v-.27H281.4l0-.23c.05-.53.05-1.65.05-2.07,0-7.33-4.38-11.53-12-11.53-6.49,0-13,4.34-13,14,0,8.6,5.36,14,14,14,6.13,0,9.38-2.1,10.49-3ZM262.34,44.83c1.14-6.41,4.94-7.37,7.13-7.37,5.69,0,6.55,5,6.63,7.37Z"/><path d="M292,43a7,7,0,0,1,6.64-4.06,7.21,7.21,0,0,1,3.26.6l.38.24V35.2l-.09-.07a4.87,4.87,0,0,0-3.18-.8,9.09,9.09,0,0,0-7.33,4.42V34.63l-5.32.24V61.75H292Z"/><path d="M315.23,46c-3.43-1.13-5.5-1.81-5.5-4.48,0-2.21,2.06-3.58,5.37-3.58a15.7,15.7,0,0,1,7,1.85l.37.22V36.17l-.12-.07a16,16,0,0,0-7.87-1.82c-6.07,0-9.84,3-9.84,7.81s3.65,6.56,7.59,7.89l.77.28c3.3,1.16,5.47,1.93,5.47,4.63s-1.89,3.84-5.79,3.84a14.19,14.19,0,0,1-8.11-2.83l-.41-.32v4l.09.07c1.46,1.29,5,2.59,9,2.59,6.69,0,10.53-2.87,10.53-7.86C323.77,49.24,319.73,47.48,315.23,46Z"/><rect x="329.05" y="25.52" width="5.59" height="5.17"/><polygon points="334.64 34.69 329.05 34.81 329.05 61.75 334.64 61.75 334.64 34.69"/><path d="M350.23,62.28c3.09,0,5.73-1,6.75-1.91l.08-.07V56.5l-.42.35a7.34,7.34,0,0,1-4.5,1.46c-2.5,0-3.67-1-3.67-3.21V38.45h7.95V34.8h-7.95V27.59L343,30v4.83l-3.82.57v3.09h3.77v17.7C342.94,60.1,345.53,62.28,350.23,62.28Z"/><polygon points="378.12 22.26 372.33 22.26 368.61 30.48 372.3 30.48 378.12 22.26"/><path d="M371.65,34.28c-6.49,0-13,4.34-13,14,0,8.6,5.36,14,14,14,6.13,0,9.38-2.1,10.49-3l.09-.07V55l-.42.43c-1.54,1.52-5.07,3.07-8.83,3.07-6.42,0-9.67-3.41-9.67-10.14v-.27h19.32l0-.23c.05-.53.05-1.65.05-2.07C383.66,38.48,379.28,34.28,371.65,34.28Zm0,3.18c5.69,0,6.55,5,6.63,7.37H364.52C365.66,38.42,369.46,37.46,371.65,37.46Z"/><path d="M164.47,70.69h-13.6v38.17H157V93.59h7.27c8,0,12.92-4.39,12.92-11.48S172.43,70.69,164.47,70.69Zm-7.48,4h6.1c5.33,0,7.81,2.37,7.81,7.46s-2.63,7.47-7.81,7.47H157Z"/><path d="M202.16,106c-1.32,0-2-.69-2-2.06V87.1c0-3.84-3.25-5.71-10-5.71-4.25,0-7.81,1.23-9.32,2.36l-.1.08v3.54l.38-.21a15.29,15.29,0,0,1,7.56-2c4.19,0,5.9.81,5.9,2.79v1.47c0,2-2.31,2.91-6.72,4.38l-.29.09c-4.19,1.31-8.52,2.67-8.52,8.28,0,4.29,3.31,7.18,8.25,7.18,4.6,0,6.89-1.84,8-3.5.41,2.17,2.27,3.5,5,3.5a6.22,6.22,0,0,0,4.43-1.44l.06-.08v-2.76l-.38.25A4.55,4.55,0,0,1,202.16,106Zm-13.2.11c-1.71,0-4.57-.54-4.57-4.16s2.7-4.41,5.09-5.22l.62-.21A12.89,12.89,0,0,0,194.65,94v8.84A6.49,6.49,0,0,1,189,106.06Z"/><path d="M220.76,81.44a9.08,9.08,0,0,0-7.33,4.43V81.75l-5.32.23v26.88h5.64V90.09a7,7,0,0,1,6.64-4,7.31,7.31,0,0,1,3.26.59l.38.24V82.32l-.08-.08A4.92,4.92,0,0,0,220.76,81.44Z"/><rect x="227.61" y="72.63" width="5.59" height="5.17"/><polygon points="227.61 108.86 233.2 108.86 233.2 81.81 227.61 81.92 227.61 108.86"/><path d="M249.88,93.11c-3.43-1.14-5.5-1.82-5.5-4.49,0-2.21,2.06-3.58,5.37-3.58a15.54,15.54,0,0,1,7,1.86l.37.21V83.29l-.11-.08a16,16,0,0,0-7.87-1.82c-6.08,0-9.85,3-9.85,7.81s3.65,6.56,7.59,7.9l.77.27c3.3,1.17,5.48,1.94,5.48,4.63s-1.9,3.85-5.8,3.85a14.23,14.23,0,0,1-8.11-2.84l-.4-.32v4l.08.08c1.46,1.28,5,2.58,9,2.58,6.7,0,10.54-2.87,10.54-7.86C258.43,96.36,254.38,94.59,249.88,93.11Z"/><path d="M295.86,105.06c-8.82,0-14.75-6.14-14.75-15.28,0-9.29,5.85-15.29,14.9-15.29a16.11,16.11,0,0,1,10.4,3.36l.4.32V73.38l-.11-.08c-2.15-1.46-5.38-3.14-11.21-3.14-12.36,0-20.66,7.89-20.66,19.62s8.09,19.61,20.13,19.61c5.18,0,9.24-1.17,12.39-3.57l.1-.07v-5l-.41.34A16.81,16.81,0,0,1,295.86,105.06Z"/><rect x="313.68" y="72.63" width="5.59" height="5.17"/><polygon points="313.68 108.86 319.27 108.86 319.27 81.81 313.68 81.92 313.68 108.86"/><path d="M336.77,105.43c-2.5,0-3.67-1-3.67-3.22V85.57h7.95V81.92H333.1V74.7l-5.48,2.37V81.9l-3.82.58v3.09h3.77v17.69c0,3.95,2.59,6.13,7.29,6.13,3.09,0,5.73-1,6.75-1.9l.07-.08v-3.79l-.41.34A7.35,7.35,0,0,1,336.77,105.43Z"/><polygon points="356.94 77.59 362.75 69.38 356.96 69.38 353.24 77.59 356.94 77.59"/><path d="M356.28,81.39c-6.48,0-13,4.35-13,14,0,8.61,5.35,14,14,14,6.13,0,9.38-2.09,10.49-3l.09-.07v-4.18l-.42.42c-1.55,1.53-5.08,3.08-8.84,3.08-6.41,0-9.66-3.42-9.66-10.14v-.28h19.32l0-.22c.05-.54.05-1.66.05-2.08C368.29,85.6,363.91,81.39,356.28,81.39Zm0,3.18c5.69,0,6.55,5,6.63,7.37H349.15C350.29,85.53,354.09,84.57,356.28,84.57Z"/></svg>